<?xml version="1.0" encoding="utf-8"?>
<!-- Generator: Adobe Illustrator 16.0.0, SVG Export Plug-In . SVG Version: 6.00 Build 0)  -->
<!DOCTYPE svg PUBLIC "-//W3C//DTD SVG 1.1//EN" "http://www.w3.org/Graphics/SVG/1.1/DTD/svg11.dtd">
<svg version="1.1" id="Layer_1" xmlns="http://www.w3.org/2000/svg" xmlns:xlink="http://www.w3.org/1999/xlink" x="0px" y="0px"
	 width="60px" height="60px" viewBox="0 0 60 60" enable-background="new 0 0 60 60" xml:space="preserve">
<path fill-rule="evenodd" clip-rule="evenodd" fill="none" stroke="#717172" stroke-width="2.5" stroke-miterlimit="10" d="
	M55.698,19.84c0,0.732,0,1.467,0,2.201c-0.027,0.109-0.069,0.219-0.08,0.329c-0.332,3.422-1.695,6.45-3.577,9.269
	c-2.658,3.98-6.022,7.336-9.461,10.62c-4.062,3.881-8.447,7.413-12.332,11.485c-0.044,0.046-0.101,0.078-0.173,0.135
	c-0.143-0.135-0.273-0.254-0.403-0.381c-1.222-1.203-2.416-2.442-3.675-3.609c-3.411-3.16-6.888-6.252-10.266-9.448
	c-2.825-2.675-5.439-5.55-7.603-8.802c-1.344-2.02-2.47-4.152-3.058-6.525c-0.25-1.012-0.404-2.047-0.6-3.072
	c0-0.734,0-1.469,0-2.201c0.029-0.178,0.07-0.355,0.089-0.533c0.312-2.859,1.342-5.428,3.218-7.611
	c2.689-3.125,6.129-4.732,10.24-4.877c3.75-0.133,7.077,1.056,10.002,3.375c0.736,0.584,1.394,1.27,2.125,1.941
	c0.074-0.09,0.144-0.182,0.221-0.269c1.69-1.886,3.736-3.253,6.105-4.128c3.135-1.159,6.333-1.322,9.506-0.277
	c4.942,1.625,8.053,5.021,9.32,10.076C55.486,18.291,55.566,19.071,55.698,19.84z"/>
</svg>
