<?xml version="1.0" encoding="utf-8"?>
<!-- Generator: Adobe Illustrator 16.0.0, SVG Export Plug-In . SVG Version: 6.00 Build 0)  -->
<!DOCTYPE svg PUBLIC "-//W3C//DTD SVG 1.1//EN" "http://www.w3.org/Graphics/SVG/1.1/DTD/svg11.dtd">
<svg version="1.1" id="Layer_1" xmlns="http://www.w3.org/2000/svg" xmlns:xlink="http://www.w3.org/1999/xlink" x="0px" y="0px"
	 width="60px" height="60px" viewBox="0 0 60 60" enable-background="new 0 0 60 60" xml:space="preserve">
<path fill-rule="evenodd" clip-rule="evenodd" fill="#F27072" stroke="#F27072" stroke-width="2.5" stroke-miterlimit="10" d="
	M55.586,20.063c0,0.716,0,1.433,0,2.148c-0.026,0.107-0.067,0.213-0.078,0.322c-0.324,3.34-1.654,6.295-3.491,9.047
	c-2.595,3.885-5.879,7.16-9.234,10.365c-3.965,3.788-8.245,7.236-12.037,11.211c-0.043,0.045-0.098,0.076-0.169,0.131
	c-0.139-0.131-0.267-0.247-0.394-0.371c-1.192-1.175-2.358-2.384-3.587-3.523c-3.329-3.084-6.723-6.102-10.02-9.222
	c-2.758-2.611-5.309-5.417-7.42-8.591c-1.312-1.972-2.411-4.054-2.984-6.369c-0.244-0.988-0.395-1.999-0.585-3
	c0-0.716,0-1.433,0-2.148c0.029-0.173,0.069-0.346,0.087-0.521c0.304-2.791,1.31-5.298,3.141-7.429
	c2.625-3.049,5.982-4.619,9.995-4.76c3.66-0.13,6.908,1.03,9.762,3.293c0.719,0.57,1.36,1.239,2.074,1.896
	c0.072-0.088,0.14-0.178,0.215-0.262c1.65-1.841,3.646-3.174,5.959-4.03c3.061-1.131,6.182-1.29,9.278-0.27
	c4.824,1.586,7.86,4.902,9.098,9.835C55.379,18.551,55.457,19.313,55.586,20.063z"/>
</svg>
