<?xml version="1.0" encoding="utf-8"?>
<!-- Generator: Adobe Illustrator 16.0.0, SVG Export Plug-In . SVG Version: 6.00 Build 0)  -->
<!DOCTYPE svg PUBLIC "-//W3C//DTD SVG 1.1//EN" "http://www.w3.org/Graphics/SVG/1.1/DTD/svg11.dtd">
<svg version="1.1" id="Layer_1" xmlns="http://www.w3.org/2000/svg" xmlns:xlink="http://www.w3.org/1999/xlink" x="0px" y="0px"
	 width="60px" height="60px" viewBox="0 0 60 60" enable-background="new 0 0 60 60" xml:space="preserve">
<path fill-rule="evenodd" clip-rule="evenodd" fill="none" stroke="#F27072" stroke-width="2.5" stroke-miterlimit="10" d="
	M55.832,55.165c-11.647-0.003-23.294-0.004-34.94-0.007c-0.219,0-0.436,0-0.684,0c0-3.439,0-6.83,0-10.264
	c0.119-0.012,0.248-0.041,0.378-0.041c11.749,0,23.497,0.002,35.246,0.005C55.832,48.293,55.832,51.729,55.832,55.165z"/>
<path fill-rule="evenodd" clip-rule="evenodd" fill="none" stroke="#F27072" stroke-width="2.5" stroke-miterlimit="10" d="
	M4.824,44.936c3.071,0,6.14,0,9.243,0c0,3.426,0,6.828,0,10.307c-3.081,0-6.162,0-9.243,0C4.824,51.807,4.824,48.37,4.824,44.936z"
	/>
<path fill-rule="evenodd" clip-rule="evenodd" fill="#F27072" stroke="#F27072" stroke-width="2.5" stroke-miterlimit="10" d="
	M55.246,15.043c-11.646-0.003-23.293-0.004-34.938-0.006c-0.222,0-0.438,0-0.687,0c0-3.441,0-6.831,0-10.264
	C19.741,4.76,19.871,4.731,20,4.731c11.749,0,23.497,0.003,35.246,0.004C55.246,8.171,55.246,11.605,55.246,15.043z"/>
<path fill-rule="evenodd" clip-rule="evenodd" fill="#F27072" stroke="#F27072" stroke-width="2.5" stroke-miterlimit="10" d="
	M4.327,4.813c3.069,0,6.14,0,9.241,0c0,3.427,0,6.829,0,10.307c-3.079,0-6.162,0-9.241,0C4.327,11.684,4.327,8.248,4.327,4.813z"/>
<path fill-rule="evenodd" clip-rule="evenodd" fill="none" stroke="#F27072" stroke-width="2.5" stroke-miterlimit="10" d="
	M55.442,35.07c-11.647-0.003-23.294-0.005-34.94-0.008c-0.219,0-0.436,0-0.687,0c0-3.439,0-6.829,0-10.264
	c0.122-0.012,0.251-0.04,0.381-0.04c11.747,0,23.497,0.001,35.246,0.004C55.442,28.197,55.442,31.633,55.442,35.07z"/>
<path fill-rule="evenodd" clip-rule="evenodd" fill="none" stroke="#F27072" stroke-width="2.5" stroke-miterlimit="10" d="
	M4.492,24.84c3.071,0,6.14,0,9.241,0c0,3.427,0,6.829,0,10.307c-3.079,0-6.16,0-9.241,0C4.492,31.711,4.492,28.274,4.492,24.84z"/>
</svg>
