<?xml version="1.0" encoding="utf-8"?>
<!-- Generator: Adobe Illustrator 16.0.0, SVG Export Plug-In . SVG Version: 6.00 Build 0)  -->
<!DOCTYPE svg PUBLIC "-//W3C//DTD SVG 1.1//EN" "http://www.w3.org/Graphics/SVG/1.1/DTD/svg11.dtd">
<svg version="1.1" id="Layer_1" xmlns="http://www.w3.org/2000/svg" xmlns:xlink="http://www.w3.org/1999/xlink" x="0px" y="0px"
	 width="60px" height="60px" viewBox="0 0 60 60" enable-background="new 0 0 60 60" xml:space="preserve">
<path fill-rule="evenodd" clip-rule="evenodd" fill="#F27072" stroke="#F27072" stroke-width="2" stroke-miterlimit="10" d="
	M1.75,4.053c0.085-0.114,0.174-0.224,0.256-0.34C2.354,3.22,2.91,2.978,3.434,3.095c0.581,0.127,1.028,0.609,1.115,1.224
	c0.03,0.216,0.032,0.439,0.032,0.66c0.002,2.225,0.001,4.448,0.001,6.674c0,0.197,0,0.391,0,0.616c0.71,0,1.344,0,2.052,0
	c0-0.223,0-0.417,0-0.613c0-2.281-0.005-4.561,0.008-6.84C6.643,4.51,6.677,4.181,6.794,3.904c0.257-0.607,0.943-0.941,1.535-0.81
	C8.981,3.24,9.462,3.82,9.466,4.535c0.012,2.225,0.005,4.449,0.006,6.673c0,0.345,0,0.69,0,1.061c0.697,0,1.334,0,2.075,0
	c0-0.213,0-0.424,0-0.634c0-2.28-0.004-4.559,0.005-6.84c0.001-0.287,0.017-0.599,0.122-0.86c0.248-0.615,0.919-0.965,1.514-0.849
	c0.682,0.133,1.158,0.713,1.159,1.473c0.006,4.229,0.009,8.458-0.008,12.688c-0.002,0.525-0.086,1.064-0.218,1.576
	c-0.492,1.891-1.653,3.262-3.417,4.075c-0.471,0.217-0.583,0.459-0.583,0.938c0.013,10.333,0.011,20.669,0.009,31.004
	c0,1.252-0.522,2.034-1.538,2.323c-1.133,0.318-2.333-0.412-2.546-1.569c-0.059-0.324-0.067-0.659-0.067-0.988
	C5.976,44.346,5.972,34.085,5.988,23.824c0-0.496-0.146-0.717-0.603-0.934c-1.937-0.916-3.099-2.468-3.531-4.569
	c-0.024-0.124-0.068-0.243-0.104-0.366C1.75,13.322,1.75,8.687,1.75,4.053z"/>
<path fill-rule="evenodd" clip-rule="evenodd" fill="#F27072" stroke="#F27072" stroke-width="2" stroke-miterlimit="10" d="
	M58.25,55.587c-0.02,0.033-0.041,0.061-0.055,0.094c-0.477,1.155-1.348,1.72-2.363,1.536c-1.086-0.199-1.723-1.051-1.725-2.349
	c-0.004-8.073-0.002-16.144-0.002-24.216c0-0.253,0-0.504,0-0.786c-0.557-0.028-1.051-0.025-1.539-0.083
	c-1.211-0.148-2.047-1.203-1.887-2.413c0.59-4.444,1.197-8.886,1.797-13.328c0.449-3.367,0.906-6.735,1.354-10.104
	c0.172-1.298,1.078-2.137,2.27-2.089c1.191,0.047,2.053,0.963,2.076,2.27c0.027,1.378,0.008,2.757,0.02,4.137
	c0,0.364,0.035,0.727,0.055,1.093C58.25,24.763,58.25,40.174,58.25,55.587z"/>
<path fill-rule="evenodd" clip-rule="evenodd" fill="#F27072" stroke="#F27072" stroke-width="2" stroke-miterlimit="10" d="
	M47.965,25.856C45.52,16.538,36.48,11.792,28.328,13.588c-8.435,1.854-13.857,9.576-13.046,17.801
	c0.835,8.501,7.739,14.831,16.261,15.041c8.193,0.203,16.576-6.289,16.902-16.285c0.277,0.339,0.482,0.688,0.779,0.926
	c0.523,0.425,1.08,0.813,1.66,1.154c0.268,0.154,0.416,0.263,0.416,0.604c-0.018,3.163-0.006,6.326-0.021,9.491
	c0,0.217-0.09,0.467-0.219,0.647c-4.229,5.967-9.947,9.481-17.258,10.065c-8.438,0.679-15.282-2.501-20.551-9.097
	c-0.176-0.222-0.287-0.562-0.287-0.843c-0.018-5.959-0.01-11.919-0.022-17.877c0-0.351,0.106-0.565,0.393-0.774
	c2.577-1.877,3.813-4.449,3.852-7.61c0.021-1.581-0.008-3.163,0.019-4.743c0.005-0.23,0.143-0.535,0.32-0.672
	c3.015-2.378,6.422-3.961,10.205-4.557c8.503-1.333,15.702,1.212,21.55,7.535c0.129,0.141,0.23,0.392,0.209,0.575
	c-0.463,3.552-0.943,7.104-1.422,10.652C48.061,25.672,48.027,25.718,47.965,25.856z"/>
</svg>
